<?xml version="1.0" encoding="UTF-8" standalone="no"?>
<svg
   xmlns:dc="http://purl.org/dc/elements/1.1/"
   xmlns:cc="http://creativecommons.org/ns#"
   xmlns:rdf="http://www.w3.org/1999/02/22-rdf-syntax-ns#"
   xmlns:svg="http://www.w3.org/2000/svg"
   xmlns="http://www.w3.org/2000/svg"
   version="1.1"
   id="aceffgdg"
   class="css-1y5supu"
   preserveAspectRatio="xMidYMid meet"
   viewBox="0 0 275 169">
  <metadata
     id="metadata16">
    <rdf:RDF>
      <cc:Work
         rdf:about="">
        <dc:format>image/svg+xml</dc:format>
        <dc:type
           rdf:resource="http://purl.org/dc/dcmitype/StillImage" />
      </cc:Work>
    </rdf:RDF>
  </metadata>
  <defs
     id="SvgjsDefs2007" />
  <g
     fill="#ffffff"
     featurekey="root"
     id="SvgjsG2008" />
  <g
     transform="matrix(1,0,0,1,0,0)"
     fill="#000000"
     featurekey="container1"
     id="SvgjsG2009">
    <rect
       id="rect4"
       height="169"
       ry="10"
       rx="10"
       width="275" />
  </g>
  <g
     transform="matrix(4.204917029793586,0,0,4.204917029793586,90.20139364489044,-13.902897024493065)"
     fill="#ffffff"
     featurekey="text1"
     id="SvgjsG2010">
    <path
       id="path7"
       d="M3.1186 10.441 c0.54237 0 0.84712 0.37271 0.84712 0.86424 l0 14.135 c-0.016949 1.6441 -0.88136 3.0169 -2.2034 3.7288 c-0.20339 0.10186 -0.35593 0.051014 -0.45746 -0.11848 l-0.83051 -1.5932 c-0.10153 -0.20339 -0.033732 -0.33898 0.16966 -0.44068 c0.54237 -0.30508 0.89814 -0.86441 0.89814 -1.5932 l0 -13.525 c-0.016784 -0.45763 -0.08458 -0.72881 -0.13543 -1.0339 c-0.050847 -0.22034 0.016949 -0.42373 0.20339 -0.42373 l1.5085 0 z M8.440633898305084 10.441 c0.54237 0 0.84712 0.37271 0.84712 0.86424 l0 14.135 c-0.016949 1.6441 -0.88136 3.0169 -2.2034 3.7288 c-0.20339 0.10186 -0.35593 0.051014 -0.45746 -0.11848 l-0.83051 -1.5932 c-0.10153 -0.20339 -0.033732 -0.33898 0.16966 -0.44068 c0.54237 -0.30508 0.89814 -0.86441 0.89814 -1.5932 l0 -13.525 c-0.016784 -0.45763 -0.08458 -0.72881 -0.13543 -1.0339 c-0.050847 -0.22034 0.016949 -0.42373 0.20339 -0.42373 l1.5085 0 z M22.11806779661017 23.61017 c0.13559 0.20339 0.034064 0.38983 -0.23712 0.38983 l-1.5763 0 c-0.47458 0 -0.88136 -0.44068 -1.0339 -0.69492 l-2.339 -3.5763 l-2.8475 0 l0 3.9322 c0 0.20339 -0.13559 0.33881 -0.32203 0.33881 l-1.7966 0 c-0.16949 0 -0.30508 -0.13543 -0.30508 -0.33881 l0 -12.898 c0 -0.16949 0.13559 -0.32203 0.32203 -0.32203 l5.4068 0 c2.7797 0 4.4915 2.5763 4.4915 4.6441 c0 1.6442 -0.98305 3.4576 -2.661 4.2373 z M14.084867796610169 12.78 l0.00033103 4.6102 l2.9659 0 c1.6102 0 2.3898 -1.1695 2.3898 -2.3559 c0 -1.1356 -0.79661 -2.2542 -2.3902 -2.2542 l-2.9659 0 z" />
  </g>
  <g
     transform="matrix(1.451377733091533,0,0,1.451377733091533,23.887621313096446,108.99472780438867)"
     fill="#ffffff"
     featurekey="text3"
     id="SvgjsG2011">
    <path
       id="path10"
       d="M0.86441 21.6442 l0.96576 -1.1188 c0.20339 -0.23746 0.45763 -0.23746 0.64407 -0.10186 c0.55932 0.47458 1.5593 1.3729 2.8136 1.3729 c1.2203 0 2.2712 -0.4578 2.2712 -1.5086 c0 -1.1017 -1.1356 -1.4237 -2.3051 -1.8983 c-2.4237 -1 -4.1864 -2.0339 -4.1864 -4.2373 c0 -1.7288 1.2712 -3.8136 4.339 -3.8136 c2.0847 0 3.5934 1.1866 4.0341 1.6273 c0.18644 0.18644 0.28814 0.42373 0.11864 0.62712 l-0.84746 1.1186 c-0.16966 0.22034 -0.40678 0.32203 -0.67797 0.13559 c-0.54237 -0.42373 -1.4237 -1.2034 -2.6102 -1.2034 c-1.2034 0 -1.9492 0.69492 -1.9492 1.5085 c0 0.89831 0.77966 1.339 2.0508 1.8475 c2.2203 0.93254 4.4407 1.9325 4.4407 4.3224 c0 1.9831 -1.9659 3.7964 -4.6439 3.7964 c-2.4237 0 -3.9322 -1.5422 -4.3559 -1.949 c-0.15254 -0.13559 -0.30508 -0.32203 -0.10169 -0.52542 z M15.745613559322035 24.11864 c2.3729 0 4.339 -1.8642 4.339 -4.3049 c0 -2.4746 -1.9661 -4.322 -4.339 -4.322 s-4.339 1.8475 -4.339 4.322 c0 2.4407 1.9661 4.3049 4.339 4.3049 z M15.745613559322035 21.9493 c-1.2034 0 -2.0847 -0.98305 -2.0847 -2.1186 c0 -1.1695 0.88136 -2.1525 2.0847 -2.1525 s2.0847 0.98305 2.0847 2.1525 c0 1.1356 -0.88136 2.1186 -2.0847 2.1186 z M28.37271186440678 10.898 c0.13559 0.084746 0.1861 0.27136 0.11831 0.4239 l-0.59322 1.3559 c-0.08458 0.18661 -0.25407 0.23746 -0.44051 0.16966 c-0.22034 -0.067797 -0.66102 -0.28814 -1.2203 -0.28814 c-0.5422 0 -1.2541 0.35593 -1.2541 1.1864 l0 1.8644 l1.6441 0 c0.13559 0 0.25424 0.10169 0.25424 0.25424 l0 1.6778 c0 0.13559 -0.11864 0.23729 -0.25424 0.23729 l-1.6441 0 l0 5.8814 c0 0.20339 -0.15254 0.33881 -0.32203 0.33881 l-1.2034 0 c-0.52542 0 -0.81356 -0.37288 -0.81356 -0.86441 l0 -5.3559 l-1.0339 0 c-0.15254 0 -0.25424 -0.084746 -0.25424 -0.22034 l0 -1.339 c0 -0.38983 0.25424 -0.61017 0.62712 -0.61017 l0.66102 0 l0 -1.8644 c0 -2.288 1.5254 -3.3898 3.5424 -3.3898 c0.84746 0 1.6271 0.22034 2.1864 0.54237 z M34.321854237288136 23.42373 c0.033898 0.13559 -0.050681 0.23763 -0.16933 0.33932 c-0.27119 0.20339 -0.9322 0.32186 -1.5424 0.32186 c-1.8644 0 -2.7288 -0.84729 -2.7288 -3.1185 l0 -3.1017 l-0.96594 0 c-0.16966 0 -0.3222 -0.13559 -0.3222 -0.3222 l0 -0.33898 c0 -0.16949 0.033898 -0.28814 0.13559 -0.40678 c0.94915 -1.0678 1.9831 -2.1866 2.8814 -3.6273 c0.084746 -0.13559 0.15254 -0.20339 0.23729 -0.20339 l0.16949 0 c0.15254 0 0.22034 0.084746 0.22034 0.25424 l0 2.3898 l1.5085 0 c0.18644 0 0.35593 0.15254 0.35593 0.33898 l0 1.5764 c0 0.18644 -0.16949 0.33898 -0.35593 0.33898 l-1.2034 0 c-0.13559 0 -0.25424 -0.016949 -0.32203 -0.050847 l0 2.9831 c0 0.69475 0.16933 1.0846 0.83034 1.0846 c0.22034 0 0.42373 -0.033898 0.59322 -0.067797 c0.22034 -0.050847 0.35593 0.084746 0.40678 0.30508 z M48.27094915254237 15.6102 c0.23729 0 0.35559 0.15254 0.2539 0.38966 l-3.2712 7.7798 c-0.033898 0.11864 -0.16949 0.22017 -0.30492 0.22017 l-0.23729 0 c-0.15254 0 -0.28814 -0.10153 -0.35593 -0.22017 l-2.3388 -4.4068 l-2.3559 4.4068 c-0.067797 0.11864 -0.20339 0.22017 -0.35593 0.22017 l-0.23729 0 c-0.15254 0 -0.27119 -0.10153 -0.32203 -0.22017 l-3.2542 -7.7798 c-0.10153 -0.23712 0.017115 -0.38966 0.25441 -0.38966 l1.7627 0 c0.16949 0 0.32203 0.10169 0.38983 0.23729 l1.6271 4.2712 l1.9492 -4.2034 c0.067797 -0.13559 0.20339 -0.22034 0.38983 -0.22034 l0.28797 0 c0.20339 0 0.3222 0.084746 0.37305 0.22034 l1.9659 4.2034 l1.6271 -4.2712 c0.067797 -0.13559 0.20339 -0.23729 0.37271 -0.23729 l1.7798 0 z M57.4576 23.57644 c-0.25441 -1.661 -0.27153 -3.1529 -0.20373 -4.7631 c0.08458 -2.0168 -1.0678 -3.3049 -3.1356 -3.3049 c-1.3729 0 -2.8136 0.38983 -3.6441 0.84746 c-0.16933 0.10186 -0.30492 0.28831 -0.22017 0.4578 l0.54237 1.2881 c0.084746 0.18644 0.22034 0.25424 0.47458 0.15254 c1.0169 -0.44068 1.8644 -0.69492 2.678 -0.69492 c0.66102 0 1.0678 0.13559 1.051 0.79661 c-2.7458 0.47458 -5.2373 1.0169 -5.2373 3.339 c0 1.5424 1.1017 2.3897 2.8475 2.3897 c1.4407 0 2.0847 -0.42356 2.6102 -0.9322 c0.11864 0.50864 0.32203 0.84746 0.74576 0.84746 l1.2712 0 c0.18644 0 0.25424 -0.22017 0.22034 -0.42356 z M53.0336 22.2541 c-0.52542 0 -0.88136 -0.15254 -0.88136 -0.59322 c0 -0.76271 1.6102 -1.1017 2.8136 -1.3559 c-0.016949 0.37288 -0.016949 0.94915 0 1.2712 c-0.50847 0.42356 -1.322 0.67797 -1.9322 0.67797 z M65.62693050847457 15.9663 c0.22034 0.15254 0.30525 0.27119 0.13592 0.50847 l-0.88136 1.2881 c-0.10169 0.15254 -0.23729 0.20339 -0.44068 0.15254 c-0.23729 -0.084746 -0.47458 -0.20339 -0.98322 -0.20339 c-0.50847 0 -1.4576 0.22034 -1.7119 1.322 l0 4.6441 c0 0.16949 -0.13559 0.32186 -0.32203 0.32186 l-1.7119 0 c-0.16949 0 -0.30508 -0.15238 -0.30508 -0.32186 l0 -7.7456 c0 -0.16949 0.13559 -0.32203 0.30508 -0.32203 l1.1695 0 c0.45763 0 0.76271 0.40678 0.84729 0.76271 c0.50864 -0.44068 1.1697 -0.83068 2.1356 -0.83068 c0.86441 0 1.4746 0.22034 1.7627 0.42373 z M73.84748983050847 20.5934 c0.74576 0 1.2375 -0.40695 1.2375 -1.2205 c0 -1.9831 -1.5593 -3.8814 -4.0678 -3.8814 c-2.3729 0 -4.2203 1.8475 -4.2203 4.3051 c0 2.5763 1.949 4.288 4.3219 4.288 c1.5085 0 2.7119 -0.52542 3.4068 -1.5085 c0.11864 -0.15254 0.084746 -0.27119 -0.050847 -0.44068 l-0.38983 -0.5422 c-0.16949 -0.22034 -0.32203 -0.18644 -0.52542 -0.084746 c-0.45763 0.25424 -1.339 0.52542 -2.1695 0.52542 c-1.0169 0 -1.9322 -0.49153 -2.1356 -1.4405 l4.5932 0 z M69.27118983050848 18.796599999999998 c0.084746 -0.54237 0.72881 -1.1695 1.6949 -1.1695 c0.98305 0 1.5932 0.61017 1.678 1.1695 l-3.3729 0 z  M81.35593542372882 21.6442 l0.96576 -1.1188 c0.20339 -0.23746 0.45763 -0.23746 0.64407 -0.10186 c0.55932 0.47458 1.5593 1.3729 2.8136 1.3729 c1.2203 0 2.2712 -0.4578 2.2712 -1.5086 c0 -1.1017 -1.1356 -1.4237 -2.3051 -1.8983 c-2.4237 -1 -4.1864 -2.0339 -4.1864 -4.2373 c0 -1.7288 1.2712 -3.8136 4.339 -3.8136 c2.0847 0 3.5934 1.1866 4.0341 1.6273 c0.18644 0.18644 0.28814 0.42373 0.11864 0.62712 l-0.84746 1.1186 c-0.16966 0.22034 -0.40678 0.32203 -0.67797 0.13559 c-0.54237 -0.42373 -1.4237 -1.2034 -2.6102 -1.2034 c-1.2034 0 -1.9492 0.69492 -1.9492 1.5085 c0 0.89831 0.77966 1.339 2.0508 1.8475 c2.2203 0.93254 4.4407 1.9325 4.4407 4.3224 c0 1.9831 -1.9659 3.7964 -4.6439 3.7964 c-2.4237 0 -3.9322 -1.5422 -4.3559 -1.949 c-0.15254 -0.13559 -0.30508 -0.32203 -0.10169 -0.52542 z M96.23713898305085 24.11864 c2.3729 0 4.339 -1.8642 4.339 -4.3049 c0 -2.4746 -1.9661 -4.322 -4.339 -4.322 s-4.339 1.8475 -4.339 4.322 c0 2.4407 1.9661 4.3049 4.339 4.3049 z M96.23713898305085 21.9493 c-1.2034 0 -2.0847 -0.98305 -2.0847 -2.1186 c0 -1.1695 0.88136 -2.1525 2.0847 -2.1525 s2.0847 0.98305 2.0847 2.1525 c0 1.1356 -0.88136 2.1186 -2.0847 2.1186 z M104.5422372881356 10.441 l-1.6949 -0.00016552 c-0.18661 0 -0.3222 0.15254 -0.3222 0.32203 l0 12.373 c0 0.49153 0.30525 0.86441 0.83068 0.86441 l1.1864 0 c0.18644 0 0.32203 -0.13543 0.32203 -0.33881 l0 -12.898 c0 -0.16949 -0.15254 -0.32203 -0.32203 -0.32203 z M114.89834745762712 15.6102 c0.18644 0 0.30525 0.15304 0.30525 0.32253 l0 7.7456 c0 0.16949 -0.11864 0.32186 -0.30508 0.32186 l-1.322 0 c-0.28814 0 -0.55932 -0.35576 -0.66102 -0.69475 c-0.59322 0.42373 -1.3729 0.79627 -2.3559 0.79627 c-1.7288 0 -3.5254 -1.1524 -3.5254 -3.2541 l0 -3.7119 c0 -0.47441 -0.050847 -0.77966 -0.11864 -1.1017 c-0.050847 -0.22034 0.033898 -0.42373 0.20339 -0.42373 l1.4237 0 c0.52542 0 0.83051 0.37288 0.83051 0.84746 l0 4.2202 c0 0.94915 0.74559 1.339 1.5422 1.339 c0.72881 0 1.3898 -0.40678 1.9661 -0.98305 l0 -5.1017 c0 -0.16949 0.13559 -0.32203 0.32203 -0.32203 l1.6949 0 z M122.54219322033899 23.42373 c0.033898 0.13559 -0.050681 0.23763 -0.16933 0.33932 c-0.27119 0.20339 -0.9322 0.32186 -1.5424 0.32186 c-1.8644 0 -2.7288 -0.84729 -2.7288 -3.1185 l0 -3.1017 l-0.96594 0 c-0.16966 0 -0.3222 -0.13559 -0.3222 -0.3222 l0 -0.33898 c0 -0.16949 0.033898 -0.28814 0.13559 -0.40678 c0.94915 -1.0678 1.9831 -2.1866 2.8814 -3.6273 c0.084746 -0.13559 0.15254 -0.20339 0.23729 -0.20339 l0.16949 0 c0.15254 0 0.22034 0.084746 0.22034 0.25424 l0 2.3898 l1.5085 0 c0.18644 0 0.35593 0.15254 0.35593 0.33898 l0 1.5764 c0 0.18644 -0.16949 0.33898 -0.35593 0.33898 l-1.2034 0 c-0.13559 0 -0.25424 -0.016949 -0.32203 -0.050847 l0 2.9831 c0 0.69475 0.16933 1.0846 0.83034 1.0846 c0.22034 0 0.42373 -0.033898 0.59322 -0.067797 c0.22034 -0.050847 0.35593 0.084746 0.40678 0.30508 z M125.67798813559324 12.966 c-0.69492 0 -1.2542 -0.55932 -1.2542 -1.2542 s0.55932 -1.2712 1.2542 -1.2712 c0.69475 0 1.271 0.57627 1.271 1.2712 s-0.57627 1.2542 -1.271 1.2542 z M126.54238813559323 15.6103 l-1.6951 0 c-0.18644 0 -0.32203 0.15254 -0.32203 0.32203 l0 7.2032 c0 0.49153 0.30508 0.86441 0.83051 0.86441 l1.2034 0 c0.16949 0 0.30508 -0.13543 0.30508 -0.33881 l0 -7.7288 c0 -0.16949 -0.15254 -0.32203 -0.32186 -0.32203 z M133.15239322033898 24.11864 c2.3729 0 4.339 -1.8642 4.339 -4.3049 c0 -2.4746 -1.9661 -4.322 -4.339 -4.322 s-4.339 1.8475 -4.339 4.322 c0 2.4407 1.9661 4.3049 4.339 4.3049 z M133.15239322033898 21.9493 c-1.2034 0 -2.0847 -0.98305 -2.0847 -2.1186 c0 -1.1695 0.88136 -2.1525 2.0847 -2.1525 s2.0847 0.98305 2.0847 2.1525 c0 1.1356 -0.88136 2.1186 -2.0847 2.1186 z M147.49149152542373 23.57644 c0.033898 0.22034 -0.033732 0.42356 -0.20322 0.42356 l-1.4237 0 c-0.54237 0 -0.84746 -0.37288 -0.84746 -0.84746 l0 -4.1864 c0 -0.94915 -0.72881 -1.3898 -1.5254 -1.3898 c-0.74576 0 -1.3898 0.33898 -1.9661 0.86441 l0 5.2373 c0 0.16949 -0.15254 0.32186 -0.32203 0.32186 l-1.7119 0 c-0.16949 0 -0.30508 -0.15238 -0.30508 -0.32186 l0 -7.7456 c0 -0.16949 0.13559 -0.32203 0.30508 -0.32203 l1.1695 0 c0.42373 0 0.71169 0.35593 0.81356 0.69492 c0.61017 -0.42373 1.3898 -0.81356 2.3559 -0.81356 c1.7456 0 3.5254 1.1697 3.5254 3.2542 l0 3.7288 c0.016784 0.47458 0.067631 0.79661 0.13543 1.1017 z M149.1693222033898 22.712 l0.72915 -1.1524 c0.13559 -0.23729 0.27119 -0.30508 0.47458 -0.20339 c0 0.016949 1.0169 0.52542 2 0.52542 c0.61017 0 0.86441 -0.18644 0.86441 -0.45763 c0 -0.33898 -0.35593 -0.45763 -1.4747 -0.74576 c-1.5254 -0.40678 -2.5763 -1.322 -2.5763 -2.6102 s1.1356 -2.5593 3.2203 -2.5593 c1.2542 0 1.9661 0.33898 2.7627 0.77966 c0.20339 0.11864 0.30508 0.32203 0.18644 0.49153 l-0.79695 1.2202 c-0.11864 0.16966 -0.28814 0.23746 -0.45763 0.18661 c-0.25424 -0.11864 -1 -0.44068 -1.6949 -0.44068 c-0.54237 0 -0.77983 0.20339 -0.77983 0.40678 c0 0.27119 0.4578 0.42373 1.2375 0.62712 c1.5085 0.40678 3 1.2034 3 2.7288 c0 1.4237 -1.4237 2.6098 -3.4915 2.6098 c-1.3898 0 -2.678 -0.6778 -3.1015 -1.0168 c-0.11864 -0.084746 -0.18644 -0.27119 -0.10169 -0.38983 z" />
  </g>
</svg>
